<svg width="47" height="55" viewBox="0 0 47 55" fill="none" xmlns="http://www.w3.org/2000/svg">
<g clip-path="url(#clip0_6746_19657)">
<path d="M4.08546 38.6603C4.08545 36.9424 4.08545 35.2527 4.08545 33.5674C4.3095 33.5072 6.05259 33.4884 6.65151 33.5389C6.65151 33.6353 6.65151 33.7361 6.65151 33.837C6.65152 35.4139 6.65015 36.9908 6.65311 38.5678C6.65351 38.7857 6.66566 39.0046 6.68885 39.2213C6.79287 40.1934 7.35069 40.6845 8.31932 40.6644C9.08268 40.6486 9.6172 40.2072 9.75998 39.4615C9.7973 39.2666 9.80663 39.0658 9.82075 38.8671C9.82948 38.7442 9.82327 38.6203 9.82327 38.4968C9.82334 36.9388 9.82331 35.3809 9.82331 33.823C9.82331 33.7303 9.82332 33.6377 9.82332 33.5348C10.6869 33.5348 11.5261 33.5348 12.3894 33.5348C12.3894 33.6518 12.3894 33.7541 12.3894 33.8565C12.3894 35.4809 12.3839 37.1054 12.3946 38.7298C12.3966 39.03 12.4352 39.337 12.5073 39.6284C12.643 40.1764 13.0115 40.5182 13.5668 40.6145C13.8333 40.6607 14.1196 40.673 14.385 40.6289C15.0189 40.5237 15.4159 40.0712 15.5251 39.3744C15.5616 39.1409 15.5785 38.9021 15.5791 38.6656C15.5837 37.0602 15.5816 35.4548 15.5816 33.8494C15.5816 33.7472 15.5816 33.645 15.5816 33.5318C16.44 33.5318 17.2728 33.5318 18.1293 33.5318C18.1353 33.6013 18.1468 33.6729 18.1469 33.7446C18.1476 35.464 18.1481 37.1835 18.1463 38.9029C18.1459 39.3512 18.0916 39.7947 17.9661 40.225C17.6025 41.4723 16.7689 42.2495 15.529 42.5835C14.5007 42.8604 13.4613 42.8532 12.4316 42.5787C11.9491 42.4502 11.5207 42.2055 11.1572 41.869C11.1297 41.8728 11.107 41.869 11.0959 41.8786C10.4516 42.4353 9.68452 42.686 8.85322 42.7529C8.03336 42.8189 7.21952 42.7773 6.43738 42.488C5.05247 41.9757 4.30784 40.9612 4.13161 39.5129C4.09843 39.2403 4.09996 38.9634 4.08546 38.6603Z" fill="#FCFCFD"/>
<path d="M27.1417 37.6477C26.5958 37.8921 26.378 38.3351 26.3108 38.8737C26.292 39.0238 26.2953 39.1771 26.2951 39.329C26.2938 40.317 26.2944 41.3049 26.2944 42.2929C26.2944 42.3859 26.2944 42.4789 26.2944 42.5879C25.4702 42.5879 24.669 42.5879 23.855 42.5879C23.855 40.2561 23.855 37.9326 23.855 35.5906C24.6187 35.5906 25.3826 35.5906 26.176 35.5906C26.176 35.812 26.176 36.034 26.176 36.3068C26.2536 36.2501 26.2889 36.2269 26.3214 36.2003C27.2693 35.4253 28.346 35.2704 29.4847 35.6217C30.433 35.9143 30.9984 36.6038 31.2035 37.5718C31.268 37.8764 31.3028 38.1927 31.3055 38.504C31.3169 39.8148 31.311 41.1258 31.311 42.4368C31.311 42.4824 31.3062 42.528 31.3028 42.5885C30.4864 42.5885 29.6851 42.5885 28.8595 42.5885C28.8595 42.4868 28.8595 42.3942 28.8595 42.3017C28.8594 41.2188 28.8655 40.1358 28.8548 39.0529C28.8523 38.7995 28.8207 38.5391 28.7537 38.2952C28.6297 37.8443 28.3023 37.5918 27.8387 37.5778C27.6144 37.571 27.3884 37.6178 27.1417 37.6477Z" fill="#FCFCFD"/>
<path d="M41.9201 41.8032C41.9821 41.9846 42.0377 42.1446 42.1051 42.3389C41.9363 42.4127 41.7801 42.5021 41.6121 42.5509C40.7905 42.7893 39.9631 42.8047 39.1463 42.5396C38.2492 42.2485 37.7329 41.6186 37.5931 40.6875C37.558 40.454 37.5432 40.2157 37.5412 39.9793C37.5348 39.2301 37.5388 38.4808 37.5388 37.7009C37.2033 37.7009 36.8767 37.7009 36.5317 37.7009C36.5317 37.0698 36.5317 36.4693 36.5317 35.8476C36.8595 35.8476 37.1801 35.8476 37.5292 35.8476C37.5292 35.2344 37.5292 34.6412 37.5292 34.0332C38.3611 34.0332 39.1644 34.0332 39.9986 34.0332C39.9986 34.631 39.9986 35.2238 39.9986 35.8339C40.5396 35.8339 41.0503 35.8339 41.582 35.8339C41.582 36.4533 41.582 37.055 41.582 37.6827C41.0666 37.6827 40.5495 37.6827 40.0177 37.6827C40.0105 37.7802 40.0005 37.8532 40.0003 37.9263C39.9991 38.6003 39.9993 39.2743 40.0001 39.9484C40.0002 40.0241 39.9992 40.101 40.0112 40.1754C40.0795 40.5994 40.3775 40.8545 40.8072 40.8176C41.0379 40.7978 41.2633 40.7146 41.5098 40.6556C41.6396 41.0176 41.7766 41.3998 41.9201 41.8032Z" fill="#FCFCFD"/>
<path d="M25.1418 26.1849C24.8837 25.835 24.6256 25.485 24.3838 25.1147C24.4531 25.077 24.5119 25.069 24.5581 25.0406C24.7757 24.9065 24.9915 24.7694 25.2049 24.6288C26.1064 24.0349 27.0064 23.4389 27.9076 22.8445C28.7929 22.2605 29.6792 21.678 30.5646 21.0941C31.4737 20.4946 32.3821 19.894 33.291 19.2941C34.3659 18.5847 35.4414 17.8764 36.5158 17.1662C37.6219 16.4352 38.7262 15.7017 39.8332 14.9721C39.9479 14.8964 40.0608 14.8294 40.0471 14.668C40.4108 14.7104 40.5104 14.874 40.3614 15.1981C40.3145 15.3002 40.2535 15.3975 40.1877 15.4888C39.7853 16.047 39.3807 16.6036 38.9738 17.1585C38.931 17.2168 38.868 17.2602 38.7805 17.3254C38.6602 17.3759 38.5659 17.399 38.4889 17.4489C37.925 17.8144 37.3642 18.1847 36.8031 18.5545C35.8941 19.1535 34.9855 19.7532 34.0768 20.3525C33.1997 20.931 32.3226 21.5095 31.4454 22.0879C30.5999 22.6455 29.7543 23.2031 28.9088 23.7607C27.755 24.5216 26.6018 25.2835 25.4462 26.0417C25.3534 26.1026 25.2437 26.1378 25.1418 26.1849Z" fill="#49B6A7"/>
<path d="M35.5423 40.2014C35.5423 41.0079 35.5423 41.7858 35.5423 42.5847C34.6905 42.5847 33.8507 42.5847 32.9917 42.5847C32.9917 39.5873 32.9917 36.5806 32.9917 33.5527C33.8223 33.5527 34.6621 33.5527 35.5423 33.5527C35.5423 35.755 35.5423 37.9639 35.5423 40.2014Z" fill="#FCFCFD"/>
<path d="M32.958 5.67133C34.3385 7.08091 33.8399 9.43377 31.9638 10.1207C30.4826 10.6631 28.846 9.807 28.4354 8.28463C28.0283 6.77508 28.9978 5.2096 30.5345 4.92795C31.4534 4.75954 32.2634 5.00844 32.958 5.67133Z" fill="#D6FD00"/>
<path d="M25.1489 26.2037C25.2433 26.1378 25.353 26.1025 25.4459 26.0416C26.6015 25.2835 27.7546 24.5216 28.9084 23.7607C29.754 23.2031 30.5995 22.6455 31.4451 22.0879C32.3222 21.5094 33.1993 20.931 34.0764 20.3525C34.9852 19.7531 35.8937 19.1534 36.8027 18.5545C37.3639 18.1847 37.9247 17.8144 38.4886 17.4489C38.5656 17.399 38.6599 17.3759 38.7672 17.3398C38.7586 17.4063 38.7398 17.481 38.6979 17.539C37.9106 18.6279 37.1206 19.7148 36.2932 20.8114C36.1527 20.8634 36.0406 20.8918 35.9488 20.9514C35.2264 21.4205 34.5075 21.895 33.7882 22.3688C32.8949 22.9572 32.0022 23.5464 31.1094 24.1355C30.2008 24.735 29.2916 25.3338 28.3841 25.9349C27.7132 26.3792 27.0453 26.8283 26.3737 27.2715C26.2728 27.3381 26.1584 27.3841 26.0502 27.4396C25.7523 27.0339 25.4543 26.6281 25.1489 26.2037Z" fill="#3EB1B4"/>
<path d="M17.0714 8.16662C16.6276 8.2022 16.1822 8.22486 15.7401 8.27545C12.8306 8.60831 10.0501 9.37544 7.46789 10.7833C6.98651 11.0458 6.54094 11.3739 6.04563 11.6588C6.00209 11.6335 5.99177 11.6212 5.98145 11.6089C6.82239 10.7124 7.76292 9.93254 8.78192 9.24879C11.3766 7.50778 14.2175 6.37362 17.2945 5.8373C18.3521 5.65296 19.42 5.56604 20.518 5.62646C20.4346 5.75415 20.3416 5.87757 20.2204 5.95886C19.241 6.61548 18.2567 7.26482 17.2726 7.91433C17.176 7.97805 17.0767 8.03302 17.0714 8.16662Z" fill="#D6FD00"/>
<path d="M40.0208 14.6626C40.0609 14.8293 39.948 14.8963 39.8332 14.9719C38.7263 15.7016 37.6219 16.4351 36.5159 17.1661C35.4415 17.8762 34.3659 18.5846 33.2911 19.294C32.3821 19.8938 31.4738 20.4945 30.5647 21.094C29.6793 21.6779 28.793 22.2604 27.9076 22.8443C27.0065 23.4387 26.1064 24.0347 25.205 24.6287C24.9916 24.7693 24.7758 24.9064 24.5582 25.0404C24.512 25.0689 24.4532 25.0768 24.3783 25.0956C24.1669 24.845 23.9775 24.593 23.8047 24.318C23.8977 24.258 23.979 24.2288 24.0496 24.1831C24.5029 23.8894 24.9543 23.5926 25.4057 23.2959C26.2848 22.7179 27.1641 22.1401 28.0422 21.5607C29.0074 20.9238 29.9707 20.284 30.9361 19.6475C31.7512 19.1101 32.5697 18.5779 33.3838 18.039C34.933 17.0135 36.4801 15.9847 38.0285 14.9579C38.14 14.884 38.2557 14.8163 38.2795 14.6678C38.8512 14.6643 39.4229 14.6608 40.0208 14.6626Z" fill="#52BB9D"/>
<path d="M26.0586 27.4587C26.1587 27.3845 26.2731 27.3385 26.374 27.2719C27.0457 26.8287 27.7135 26.3797 28.3844 25.9353C29.2919 25.3342 30.2011 24.7355 31.1097 24.1359C32.0025 23.5468 32.8952 22.9576 33.7885 22.3693C34.5078 21.8954 35.2267 21.4209 35.9492 20.9518C36.0409 20.8923 36.153 20.8638 36.278 20.8223C35.7441 21.6002 35.1891 22.3779 34.6307 23.1532C34.2089 23.7388 33.7827 24.3214 33.3203 24.9148C33.1532 24.9799 33.0134 25.0187 32.897 25.0938C32.2681 25.4995 31.6448 25.9137 31.0199 26.3257C29.8097 27.1237 28.6003 27.9231 27.3885 28.7187C27.2956 28.7798 27.1863 28.816 27.0846 28.8638C26.7453 28.4016 26.406 27.9395 26.0586 27.4587Z" fill="#33AAC2"/>
<path d="M22.2308 42.406C22.2275 42.4791 22.2243 42.5254 22.22 42.5877C21.4084 42.5877 20.607 42.5877 19.792 42.5877C19.792 40.2586 19.792 37.935 19.792 35.5918C20.5897 35.5918 21.391 35.5918 22.2308 35.5918C22.2308 37.8514 22.2308 40.1153 22.2308 42.406Z" fill="#FCFCFD"/>
<path d="M27.0449 17.3958C27.0075 17.534 26.9702 17.6722 26.9166 17.845C26.8534 18 26.805 18.12 26.7595 18.2411C26.6654 18.4915 26.5729 18.7425 26.4585 18.9934C26.3615 19.028 26.28 19.0537 26.2107 19.0985C25.7257 19.4122 25.2419 19.7278 24.7601 20.0465C23.978 20.5638 23.1981 21.0846 22.4164 21.6026C22.2445 21.7165 22.0403 21.7926 21.9656 22.014C21.9577 22.0374 21.9286 22.0569 21.9051 22.0713C21.7127 22.1892 21.5281 22.3244 21.3247 22.4188C20.6591 22.7277 20.0661 23.156 19.4521 23.5476C18.4861 24.1638 17.5366 24.806 16.5814 25.439C16.0523 25.7896 15.5277 26.1468 14.9964 26.4939C14.8972 26.5587 14.776 26.5897 14.6649 26.6363C14.5008 26.4193 14.3367 26.2022 14.1846 25.9648C14.3904 25.8272 14.5882 25.7159 14.7776 25.5918C15.6965 24.9895 16.6128 24.3835 17.5305 23.7795C18.2583 23.3004 18.99 22.8273 19.7122 22.34C19.8793 22.2272 20.0691 22.1009 20.0344 21.8457C20.0039 21.6219 19.9721 21.398 19.9349 21.1752C19.8543 20.6937 19.6339 20.2601 19.4575 19.8117C19.4439 19.777 19.3883 19.7589 19.3516 19.7116C19.2901 19.5073 19.2669 19.3009 19.0521 19.2149C19.2043 18.9969 19.3565 18.7789 19.5333 18.5463C19.558 18.5317 19.5798 18.5322 19.5877 18.55C19.6282 18.6141 19.6582 18.6622 19.6935 18.7061C19.8632 18.9168 20.0344 19.1263 20.2078 19.3559C20.3801 19.609 20.5497 19.8425 20.7274 20.0936C20.8897 20.3253 21.0388 20.5433 21.1997 20.7523C21.3745 20.9794 21.4253 20.9855 21.6642 20.8296C22.2653 20.4371 22.8656 20.0432 23.4649 19.6479C24.5376 18.9405 25.6095 18.2319 26.6816 17.5235C26.7922 17.4505 26.8995 17.3692 27.0449 17.3958Z" fill="#6FCA7B"/>
<path d="M27.595 9.91992C27.7826 10.4006 27.872 10.9033 27.9065 11.4396C27.8055 11.4986 27.7224 11.521 27.6527 11.5648C27.3397 11.7612 27.029 11.9613 26.7202 12.1644C25.8253 12.7529 24.9318 13.3434 24.0378 13.9333C23.128 14.5336 22.2177 15.1332 21.3087 15.7348C20.5497 16.237 19.7914 16.7402 19.0356 17.2471C18.9518 17.3033 18.886 17.3865 18.8119 17.4572C18.5144 17.0533 18.217 16.6494 17.9346 16.223C18.629 15.7617 19.31 15.3253 19.9847 14.8795C20.0418 14.8417 20.0574 14.7411 20.0922 14.6697C20.6116 14.6697 21.131 14.6697 21.6566 14.6697C21.928 14.2169 22.113 13.7432 22.333 13.2531C22.4368 13.2151 22.5147 13.2071 22.5769 13.1715C22.7408 13.0778 22.8999 12.975 23.0575 12.8707C24.4696 11.9368 25.8806 11.001 27.2937 10.0686C27.3865 10.0074 27.4942 9.96894 27.595 9.91992Z" fill="#97DE4A"/>
<path d="M18.8169 17.4734C18.8858 17.3863 18.9515 17.3031 19.0354 17.2469C19.7912 16.74 20.5495 16.2368 21.3084 15.7346C22.2174 15.133 23.1277 14.5334 24.0376 13.9331C24.9316 13.3432 25.8251 12.7527 26.72 12.1642C27.0287 11.9611 27.3395 11.761 27.6525 11.5646C27.7222 11.5208 27.8053 11.4984 27.9052 11.4648C27.9991 11.9801 28.0217 12.4979 27.9428 13.0416C27.8216 13.1065 27.7201 13.1355 27.6352 13.1903C27.0793 13.5494 26.5265 13.9133 25.9738 14.2771C25.0813 14.8646 24.1897 15.4533 23.2978 16.0415C22.2637 16.7234 21.2287 17.4039 20.1966 18.0886C19.9853 18.2287 19.7849 18.385 19.5794 18.5339C19.5794 18.5339 19.5576 18.5334 19.5468 18.5336C19.4129 18.3464 19.2925 18.1572 19.1662 17.9721C19.055 17.809 18.9371 17.6504 18.8169 17.4734Z" fill="#8DD957"/>
<path d="M14.6704 26.6559C14.776 26.5903 14.8972 26.5593 14.9964 26.4945C15.5277 26.1474 16.0524 25.7902 16.5814 25.4396C17.5367 24.8066 18.4861 24.1644 19.4522 23.5482C20.0662 23.1566 20.6592 22.7283 21.3247 22.4194C21.5281 22.325 21.7127 22.1898 21.9051 22.0719C21.9286 22.0575 21.9577 22.038 21.9656 22.0146C22.0403 21.7932 22.2445 21.7171 22.4164 21.6032C23.1981 21.0852 23.978 20.5644 24.7602 20.0471C25.2419 19.7284 25.7257 19.4128 26.2107 19.0991C26.28 19.0543 26.3616 19.0286 26.4577 19.0156C26.4625 19.0908 26.4537 19.1475 26.4304 19.1975C26.1619 19.7757 25.8912 20.3529 25.6001 20.931C25.5348 20.9452 25.4839 20.949 25.4468 20.9737C24.6045 21.5321 23.7627 22.0912 22.9236 22.6543C22.7408 22.7769 22.7351 22.8533 22.8605 23.0544C22.9642 23.2208 23.0679 23.3873 23.1622 23.5708C23.0981 23.67 23.0284 23.6532 22.9527 23.6217C22.4663 23.4193 21.9535 23.4222 21.4419 23.4435C21.1678 23.4548 20.9071 23.5192 20.6677 23.6811C19.9541 24.1638 19.2295 24.6302 18.5104 25.1047C17.4908 25.7773 16.4732 26.453 15.4516 27.1224C15.3525 27.1873 15.231 27.2179 15.1199 27.2645C14.9719 27.0679 14.8239 26.8714 14.6704 26.6559Z" fill="#67C784"/>
<path d="M38.2528 14.6643C38.2553 14.8175 38.1397 14.8852 38.0282 14.9592C36.4797 15.9859 34.9327 17.0148 33.3834 18.0403C32.5694 18.5791 31.7508 19.1113 30.9358 19.6487C29.9704 20.2853 29.0071 20.925 28.0419 21.5619C27.1637 22.1414 26.2845 22.7191 25.4053 23.2971C24.954 23.5939 24.5026 23.8906 24.0492 24.1843C23.9786 24.23 23.8973 24.2593 23.7993 24.2995C23.7198 24.2468 23.6621 24.1906 23.5851 24.1105C23.5102 23.9854 23.4546 23.8842 23.4077 23.7659C23.5299 23.6496 23.6346 23.5373 23.7584 23.4533C24.1505 23.1872 24.5502 22.9326 24.946 22.672C26.1019 21.9107 27.2566 21.1477 28.4139 20.3885C28.507 20.3275 28.6158 20.2904 28.7173 20.2422C28.8111 20.191 28.9194 20.1554 28.9952 20.0848C29.0956 19.9913 29.1706 19.8706 29.2922 19.7482C29.4324 19.6971 29.5482 19.6771 29.6393 19.6185C30.2038 19.2558 30.7637 18.886 31.3231 18.5156C32.1112 17.9936 32.8956 17.466 33.6851 16.9462C34.6717 16.2966 35.6623 15.6531 36.65 15.0052C36.7731 14.9244 36.9298 14.8641 36.9109 14.6702C37.3494 14.6666 37.788 14.6631 38.2528 14.6643Z" fill="#57BE97"/>
<path d="M17.097 8.17284C17.0763 8.03273 17.1757 7.97775 17.2723 7.91403C18.2564 7.26452 19.2407 6.61519 20.2201 5.95856C20.3413 5.87727 20.4343 5.75385 20.5439 5.63164C21.4132 5.62013 22.2657 5.73545 23.0974 5.97147C23.5238 6.09247 23.9357 6.26432 24.351 6.43897C24.1739 6.60647 24.0102 6.76344 23.8245 6.88731C22.9687 7.45797 22.1055 8.01734 21.2491 8.58703C21.1541 8.65028 21.0108 8.68229 21.0051 8.83847C19.7695 8.27451 18.4563 8.16751 17.097 8.17284Z" fill="#C8F610"/>
<path d="M12.7898 24.0706C12.4522 23.6074 12.1147 23.1442 11.7925 22.6596C12.1456 22.4311 12.4889 22.2325 12.8202 22.0156C13.7852 21.3837 14.7445 20.7431 15.708 20.1088C16.1659 19.8074 16.6281 19.5126 17.0883 19.2148C17.234 19.4102 17.3784 19.6064 17.5257 19.8005C17.6053 19.9052 17.6828 20.0128 17.7736 20.1073C17.9758 20.3175 18.1116 20.3183 18.327 20.1236C18.3549 20.0985 18.3793 20.0695 18.4308 20.0514C18.567 20.2912 18.3984 20.3868 18.2467 20.4873C17.0161 21.3027 15.7864 22.1194 14.5535 22.9311C13.9689 23.316 13.3779 23.691 12.7898 24.0706Z" fill="#88D65D"/>
<path d="M12.7983 24.0878C13.3779 23.6909 13.969 23.3159 14.5535 22.931C15.7865 22.1192 17.0162 21.3026 18.2467 20.4872C18.3984 20.3866 18.567 20.2911 18.448 20.0415C18.6333 19.7607 18.8269 19.4987 19.0362 19.2266C19.2666 19.3025 19.2898 19.509 19.3517 19.737C19.4025 20.1245 19.5046 20.4643 19.4061 20.8141C19.3728 20.9324 19.3234 21.0479 19.3052 21.1683C19.2697 21.4033 19.1404 21.554 18.9446 21.6811C18.1108 22.222 17.284 22.7737 16.4543 23.3209C15.6403 23.8577 14.8248 24.392 14.0128 24.9316C13.8812 25.019 13.764 25.1281 13.6402 25.2272C13.3624 24.8532 13.0846 24.4792 12.7983 24.0878Z" fill="#7CD16B"/>
<path d="M27.0918 28.8819C27.1864 28.8153 27.2957 28.7791 27.3886 28.7181C28.6004 27.9224 29.8098 27.123 31.02 26.325C31.6448 25.913 32.2682 25.4988 32.8971 25.0931C33.0135 25.018 33.1533 24.9792 33.3042 24.9238C33.1649 25.1546 33.0064 25.3871 32.8421 25.6154C32.3943 26.2377 31.944 26.8582 31.4946 27.4794C30.8597 28.3569 30.2271 29.2359 29.5875 30.1099C29.4877 30.2462 29.3686 30.3753 29.2361 30.4792C28.9632 30.6931 28.6457 30.7008 28.3646 30.5C28.2275 30.4022 28.0994 30.2801 27.9983 30.1457C27.6904 29.7368 27.3976 29.3166 27.0918 28.8819Z" fill="#25A3D1"/>
<path d="M17.082 19.1959C16.6284 19.5126 16.1662 19.8074 15.7083 20.1088C14.7448 20.7431 13.7855 21.3837 12.8205 22.0156C12.4892 22.2325 12.1459 22.4311 11.7879 22.6407C11.4626 22.2297 11.1574 21.8163 10.8574 21.3655C11.3136 21.0346 11.7666 20.7439 12.2155 20.4471C13.4299 19.6442 14.6431 18.8395 15.8546 18.0323C15.9303 17.9818 15.9875 17.9033 16.0533 17.8379C16.1091 17.8812 16.1801 17.914 16.2182 17.9695C16.4563 18.316 16.6855 18.6686 16.9218 19.0164C16.9629 19.0768 17.0236 19.1238 17.082 19.1959Z" fill="#94DC4E"/>
<path d="M16.0516 17.8172C15.9874 17.9024 15.9302 17.9808 15.8545 18.0313C14.643 18.8385 13.4298 19.6432 12.2154 20.4461C11.7665 20.7429 11.3135 21.0337 10.8524 21.3467C10.5067 20.9114 10.1711 20.4567 9.85205 19.982C10.0109 19.891 10.162 19.8334 10.2942 19.7468C11.2524 19.1195 12.2069 18.4865 13.1624 17.855C13.8336 17.4114 14.5044 16.9673 15.1754 16.5234C15.4669 16.9481 15.7585 17.3728 16.0516 17.8172Z" fill="#A0E340"/>
<path d="M19.5874 18.5512C19.7849 18.3844 19.9853 18.2281 20.1966 18.088C21.2287 17.4033 22.2637 16.7228 23.2978 16.0409C24.1897 15.4527 25.0813 14.864 25.9738 14.2766C26.5265 13.9127 27.0793 13.5488 27.6352 13.1897C27.7201 13.1349 27.8216 13.1059 27.9366 13.0645C27.9147 13.5093 27.8718 13.9546 27.796 14.4194C27.6371 14.5023 27.5037 14.5545 27.3862 14.6309C26.6155 15.1322 25.8474 15.6374 25.0801 16.1439C24.0043 16.854 22.9316 17.5689 21.8544 18.2768C21.3081 18.6358 20.7548 18.9842 20.2046 19.3373C20.034 19.1274 19.8629 18.9179 19.6932 18.7072C19.6579 18.6633 19.6278 18.6152 19.5874 18.5512Z" fill="#84D561"/>
<path d="M23.2896 24.5246C23.1424 24.7435 22.9951 24.9624 22.8099 25.1942C22.7251 25.2017 22.6756 25.2043 22.6317 25.1896C22.368 25.1014 22.1322 25.1568 21.9052 25.3073C21.2433 25.7462 20.5773 26.1789 19.9146 26.6166C18.8179 27.3411 17.7235 28.0689 16.6252 28.7908C16.5343 28.8505 16.4211 28.8762 16.3183 28.9177C16.1103 28.6366 15.9022 28.3555 15.7002 28.037C15.8472 27.9054 15.9879 27.8106 16.1293 27.7169C17.3752 26.8913 18.6214 26.066 19.8671 25.2403C20.3166 24.9423 20.7618 24.6375 21.2169 24.3484C21.34 24.2702 21.4999 24.1786 21.6298 24.1954C22.0487 24.2494 22.4617 24.3505 22.8767 24.4347C23.0147 24.4627 23.152 24.4945 23.2896 24.5246Z" fill="#5CBF90"/>
<path d="M15.1682 16.5047C14.5044 16.9677 13.8336 17.4118 13.1625 17.8554C12.207 18.4869 11.2525 19.1199 10.2942 19.7472C10.1621 19.8337 10.011 19.8914 9.84729 19.9633C9.69862 19.8057 9.56615 19.6511 9.44546 19.4878C9.31775 19.315 9.20125 19.1339 9.08545 18.919C9.16585 18.8241 9.23743 18.7617 9.31601 18.71C9.72715 18.4393 10.141 18.1728 10.5522 17.9022C11.5962 17.2151 12.6391 16.5264 13.6827 15.8388C13.9118 15.6879 14.142 15.5387 14.3717 15.3887C14.6347 15.7543 14.8978 16.12 15.1682 16.5047Z" fill="#ABE833"/>
<path d="M27.5898 9.8968C27.494 9.96746 27.3862 10.0059 27.2935 10.0671C25.8804 10.9995 24.4694 11.9353 23.0573 12.8693C22.8996 12.9735 22.7406 13.0763 22.5766 13.1701C22.5144 13.2056 22.4365 13.2136 22.3442 13.2343C22.4234 12.7752 22.5312 12.3175 22.621 11.8562C22.6532 11.6908 22.6422 11.5168 22.6766 11.321C22.7698 11.265 22.8423 11.2426 22.9039 11.2032C23.2943 10.9534 23.6831 10.7013 24.0707 10.4472C24.925 9.88699 25.7795 9.32722 26.63 8.76124C26.7256 8.6976 26.868 8.66487 26.8763 8.50977C27.1579 8.81717 27.3192 9.19086 27.4639 9.57398C27.5021 9.67518 27.5445 9.77481 27.5898 9.8968Z" fill="#A0E340"/>
<path d="M20.2075 19.3576C20.7549 18.9848 21.3082 18.6364 21.8545 18.2774C22.9317 17.5695 24.0044 16.8546 25.0802 16.1444C25.8475 15.638 26.6156 15.1328 27.3863 14.6315C27.5038 14.5551 27.6372 14.5029 27.7849 14.4395C27.7407 14.756 27.6735 15.0725 27.6094 15.3895C27.584 15.5153 27.5652 15.6425 27.508 15.7866C27.3851 15.8363 27.2902 15.8559 27.2115 15.9028C26.992 16.0338 26.7775 16.1737 26.564 16.3145C25.6538 16.9145 24.7451 17.5166 23.8352 18.117C22.9016 18.7329 21.9683 19.3495 21.0313 19.9603C20.9403 20.0195 20.8238 20.0395 20.7191 20.0777C20.5495 19.8442 20.3799 19.6107 20.2075 19.3576Z" fill="#7CD16B"/>
<path d="M16.3237 28.9357C16.421 28.8752 16.5342 28.8495 16.625 28.7898C17.7233 28.0679 18.8178 27.3401 19.9144 26.6157C20.5771 26.1779 21.2431 25.7453 21.9051 25.3064C22.1321 25.1559 22.3678 25.1004 22.6316 25.1887C22.6754 25.2033 22.7249 25.2008 22.7952 25.2063C22.3039 25.9045 21.7893 26.6027 21.2363 27.3097C21.0766 27.3674 20.9431 27.3976 20.8359 27.4679C19.6592 28.2394 18.4857 29.0159 17.3147 29.7962C17.2346 29.8495 17.1823 29.9445 17.117 30.0202C16.8544 29.665 16.5919 29.3098 16.3237 28.9357Z" fill="#52BB9D"/>
<path d="M20.7271 20.0948C20.8237 20.039 20.9402 20.019 21.0312 19.9597C21.9682 19.349 22.9015 18.7324 23.8351 18.1164C24.745 17.5161 25.6537 16.914 26.5639 16.314C26.7774 16.1732 26.9919 16.0333 27.2114 15.9023C27.2901 15.8553 27.385 15.8358 27.4947 15.8047C27.3674 16.3245 27.2179 16.8434 27.0565 17.3796C26.8992 17.3704 26.7918 17.4517 26.6812 17.5247C25.6091 18.233 24.5373 18.9417 23.4646 19.6491C22.8652 20.0443 22.265 20.4383 21.6638 20.8308C21.425 20.9867 21.3742 20.9806 21.1993 20.7534C21.0385 20.5445 20.8894 20.3265 20.7271 20.0948Z" fill="#76CD72"/>
<path d="M23.3053 24.513C23.1519 24.4938 23.0147 24.462 22.8767 24.434C22.4617 24.3498 22.0487 24.2487 21.6297 24.1946C21.4999 24.1779 21.34 24.2695 21.2168 24.3477C20.7617 24.6368 20.3166 24.9416 19.8671 25.2395C18.6213 26.0653 17.3752 26.8905 16.1293 27.7161C15.9879 27.8099 15.8472 27.9046 15.695 28.0184C15.4995 27.7926 15.3153 27.5473 15.1255 27.2831C15.2309 27.2176 15.3524 27.187 15.4515 27.1221C16.4731 26.4527 17.4907 25.777 18.5103 25.1044C19.2295 24.6299 19.954 24.1635 20.6676 23.6808C20.907 23.5189 21.1677 23.4545 21.4418 23.4432C21.9534 23.4219 22.4662 23.419 22.9526 23.6214C23.0283 23.6529 23.098 23.6697 23.1784 23.5788C23.2691 23.6406 23.3341 23.7111 23.3991 23.7817C23.4547 23.8829 23.5103 23.9841 23.5683 24.1046C23.4875 24.25 23.4043 24.376 23.3053 24.513Z" fill="#62C48A"/>
<path d="M13.646 25.2447C13.7644 25.1275 13.8816 25.0184 14.0132 24.9309C14.8253 24.3914 15.6408 23.857 16.4547 23.3203C17.2845 22.7731 18.1113 22.2214 18.9451 21.6804C19.1409 21.5534 19.2701 21.4026 19.3056 21.1676C19.3238 21.0473 19.3732 20.9317 19.4065 20.8134C19.5051 20.4636 19.403 20.1239 19.3527 19.7578C19.3885 19.7599 19.444 19.778 19.4577 19.8127C19.6341 20.261 19.8545 20.6947 19.935 21.1762C19.9723 21.399 20.004 21.6228 20.0345 21.8467C20.0693 22.1019 19.8795 22.2282 19.7123 22.341C18.9901 22.8283 18.2584 23.3014 17.5307 23.7805C16.613 24.3845 15.6966 24.9905 14.7778 25.5928C14.5884 25.7169 14.3906 25.8282 14.1762 25.9483C13.9876 25.7217 13.8195 25.4923 13.646 25.2447Z" fill="#76CD72"/>
<path d="M26.8609 8.49894C26.8681 8.6661 26.7257 8.69883 26.6301 8.76247C25.7797 9.32845 24.9251 9.88822 24.0708 10.4484C23.6833 10.7025 23.2944 10.9546 22.9041 11.2044C22.8425 11.2439 22.7699 11.2663 22.6816 11.2969C22.5978 10.7611 22.4738 10.2457 22.1641 9.77694C22.2822 9.70601 22.392 9.66889 22.4856 9.60724C23.5275 8.92127 24.5681 8.23316 25.6049 7.53951C25.6834 7.48702 25.7307 7.38796 25.7925 7.31055C26.1402 7.54091 26.402 7.85491 26.6437 8.18795C26.7142 8.28519 26.7783 8.38711 26.8609 8.49894Z" fill="#ABE833"/>
<path d="M14.3648 15.3698C14.1421 15.5391 13.912 15.6883 13.6829 15.8392C12.6393 16.5268 11.5963 17.2155 10.5524 17.9026C10.1412 18.1732 9.72732 18.4397 9.31618 18.7104C9.2376 18.7621 9.16602 18.8245 9.08043 18.9017C8.82955 18.5982 8.58946 18.275 8.36523 17.9297C8.44156 17.881 8.50659 17.8615 8.5617 17.8265C8.88913 17.6181 9.21569 17.4083 9.53988 17.1949C10.3861 16.6379 11.2321 16.0804 12.0759 15.5196C12.3911 15.3102 12.6994 15.0903 13.012 14.8769C13.0855 14.8268 13.1505 14.7755 13.1368 14.6737C13.6899 14.6359 14.085 14.883 14.3648 15.3698Z" fill="#B8EF23"/>
<path d="M13.1104 14.6672C13.1503 14.7743 13.0853 14.8255 13.0119 14.8757C12.6992 15.0891 12.3909 15.3089 12.0757 15.5184C11.2319 16.0791 10.386 16.6366 9.53973 17.1936C9.21554 17.407 8.88897 17.6168 8.56155 17.8252C8.50644 17.8603 8.44141 17.8798 8.36024 17.9093C8.07922 17.5625 7.81893 17.213 7.56592 16.8293C7.64383 16.7474 7.7141 16.6992 7.78516 16.6522C8.66973 16.0671 9.55345 15.4807 10.4405 14.8995C10.531 14.8402 10.5785 14.7752 10.5709 14.6694C11.4086 14.667 12.2464 14.6645 13.1104 14.6672Z" fill="#BDF11E"/>
<path d="M25.783 7.2941C25.7309 7.38804 25.6836 7.4871 25.6052 7.53959C24.5683 8.23324 23.5278 8.92136 22.4859 9.60732C22.3922 9.66897 22.2824 9.7061 22.1594 9.75749C22.0369 9.65246 21.947 9.52913 21.8309 9.43978C21.5716 9.24016 21.2993 9.05748 21.0189 8.8537C21.0111 8.68331 21.1544 8.6513 21.2495 8.58805C22.1059 8.01836 22.9691 7.45899 23.8248 6.88833C24.0106 6.76446 24.1742 6.60749 24.365 6.45508C24.8971 6.63639 25.3444 6.94172 25.783 7.2941Z" fill="#B8EF23"/>
<path d="M20.8026 32.1823C21.2763 32.1506 21.69 32.2301 22.0585 32.5159C22.6773 32.9959 22.5981 33.8613 22.2155 34.2948C22.0285 34.5068 21.8048 34.659 21.5302 34.7312C21.2031 34.8173 20.8724 34.8225 20.5442 34.7471C19.9181 34.6034 19.5023 34.1031 19.4957 33.4982C19.4891 32.8981 19.9033 32.3879 20.5257 32.2322C20.6084 32.2116 20.6936 32.2011 20.8026 32.1823Z" fill="#FCFCFD"/>
<path d="M36.8849 14.6643C36.9302 14.863 36.7735 14.9233 36.6503 15.0041C35.6627 15.652 34.6721 16.2955 33.6855 16.9451C32.8959 17.4649 32.1115 17.9925 31.3234 18.5145C30.764 18.8849 30.2041 19.2547 29.6397 19.6175C29.5486 19.676 29.4327 19.696 29.3071 19.734C29.6319 19.2407 29.9779 18.7473 30.3238 18.2539C30.4158 18.1227 30.5074 17.9913 30.6284 17.8661C30.7735 17.945 30.8559 17.8599 30.9383 17.8054C32.3793 16.853 33.8201 15.9001 35.2564 14.9408C35.3509 14.8777 35.4102 14.7618 35.4858 14.6705C35.9434 14.6668 36.401 14.6631 36.8849 14.6643Z" fill="#5CBF90"/>
<path d="M23.4078 23.7645C23.3341 23.711 23.2691 23.6405 23.1878 23.5616C23.0678 23.3868 22.9641 23.2204 22.8604 23.054C22.7349 22.8528 22.7407 22.7765 22.9234 22.6539C23.7626 22.0908 24.6044 21.5316 25.4467 20.9732C25.4838 20.9486 25.5347 20.9447 25.5918 20.9481C25.5344 21.1057 25.4645 21.2463 25.3875 21.3899C25.3852 21.3909 25.3899 21.3889 25.4161 21.3866C25.5168 21.3586 25.601 21.3404 25.6746 21.3019C26.3418 20.9521 27.0106 20.605 27.6712 20.243C27.8988 20.1182 28.1045 19.9532 28.3203 19.8066C28.4446 19.9412 28.569 20.0757 28.7054 20.2255C28.6159 20.289 28.5071 20.326 28.4141 20.3871C27.2568 21.1463 26.102 21.9092 24.9461 22.6705C24.5504 22.9312 24.1506 23.1858 23.7586 23.4518C23.6347 23.5359 23.53 23.6481 23.4078 23.7645Z" fill="#5CBF90"/>
<path d="M10.5445 14.6646C10.5784 14.7754 10.5309 14.8403 10.4404 14.8996C9.55335 15.4809 8.66962 16.0673 7.78505 16.6524C7.71399 16.6994 7.64373 16.7476 7.56148 16.8104C7.18671 16.3303 6.82355 15.8351 6.4605 15.3399C6.45494 15.3323 6.45085 15.3236 6.44604 15.3155C6.16766 14.8438 6.39421 14.6436 6.82615 14.6485C8.05673 14.6625 9.28752 14.6572 10.5445 14.6646Z" fill="#C8F610"/>
<path d="M35.4592 14.6664C35.4099 14.7625 35.3507 14.8784 35.2562 14.9415C33.8198 15.9008 32.3791 16.8537 30.9381 17.8061C30.8557 17.8605 30.7733 17.9457 30.645 17.857C30.9409 17.4007 31.2487 16.96 31.5574 16.5199C31.8562 16.094 32.1594 15.6711 32.4541 15.2424C32.7153 14.8625 33.0718 14.6649 33.5308 14.662C34.1648 14.6579 34.7988 14.6614 35.4592 14.6664Z" fill="#62C48A"/>
<path d="M33.0472 46.9594C32.9109 46.9596 32.8025 46.9783 32.7499 46.8265C32.5235 46.1725 32.2868 45.5221 32.0551 44.8699C32.0495 44.8543 32.0578 44.8337 32.0613 44.7979C32.2343 44.7979 32.4095 44.7979 32.6136 44.7979C32.7735 45.2501 32.937 45.7123 33.1233 46.2389C33.3158 45.721 33.488 45.2578 33.6616 44.791C33.8365 44.791 33.9959 44.791 34.1894 44.791C34.3536 45.2479 34.522 45.7167 34.7105 46.2415C34.899 45.7235 35.0662 45.2639 35.2368 44.7951C35.4148 44.7951 35.5822 44.7951 35.7902 44.7951C35.5274 45.5223 35.2713 46.2312 35.0127 46.9469C34.8107 46.9469 34.6226 46.9469 34.3969 46.9469C34.2475 46.5398 34.0918 46.1153 33.9129 45.6279C33.7335 46.0979 33.5741 46.5152 33.4045 46.9594C33.2942 46.9594 33.1826 46.9594 33.0472 46.9594Z" fill="#D1F702"/>
<path d="M13.6261 46.7372C13.1625 47.0544 12.8297 47.0708 12.2698 46.7955C12.2642 46.9544 12.2571 47.0978 12.2547 47.2414C12.2522 47.3923 12.2541 47.5432 12.2541 47.716C12.0447 47.716 11.852 47.716 11.6436 47.716C11.6436 46.7461 11.6436 45.7745 11.6436 44.7913C11.8393 44.7913 12.0168 44.7913 12.202 44.7913C12.2151 44.8509 12.227 44.9055 12.2391 44.9605C12.2571 44.9593 12.2785 44.9642 12.2919 44.9561C12.7992 44.6476 13.3618 44.7026 13.7153 45.0966C14.0711 45.4933 14.0906 46.1598 13.7577 46.5988C13.7236 46.6438 13.6806 46.6822 13.6261 46.7372ZM13.3539 45.8288C13.3335 45.7463 13.3244 45.6589 13.2906 45.5823C13.1986 45.3733 12.9951 45.2599 12.7605 45.274C12.5295 45.2878 12.3494 45.4299 12.2796 45.6535C12.1662 46.0164 12.3345 46.3777 12.6597 46.4565C12.9712 46.532 13.3064 46.36 13.3527 45.9314C13.3547 45.9126 13.3538 45.8935 13.3539 45.8288Z" fill="#D1F702"/>
<path d="M28.3149 19.7896C28.1045 19.9534 27.8988 20.1183 27.6711 20.2431C27.0106 20.6052 26.3418 20.9523 25.6745 21.302C25.601 21.3406 25.5168 21.3588 25.416 21.3868C25.4644 21.2465 25.5344 21.1058 25.6126 20.9477C25.891 20.3526 26.1617 19.7754 26.4303 19.1972C26.4535 19.1472 26.4623 19.0905 26.4787 19.0152C26.5727 18.7428 26.6653 18.4918 26.7594 18.2414C26.8049 18.1203 26.8533 18.0003 26.9157 17.8672C27.3906 18.4939 27.8501 19.1332 28.3149 19.7896Z" fill="#4EAA8D"/>
<path d="M17.1221 30.0393C17.1823 29.9457 17.2347 29.8507 17.3148 29.7974C18.4857 29.0171 19.6592 28.2407 20.8359 27.4691C20.9432 27.3988 21.0766 27.3686 21.22 27.3203C20.9743 27.6642 20.7149 28.0144 20.437 28.3492C19.9463 28.9402 19.4469 29.524 18.945 30.1056C18.8344 30.2337 18.7084 30.3536 18.5721 30.4537C18.1269 30.7805 17.7111 30.7354 17.334 30.3276C17.2573 30.2446 17.1957 30.1477 17.1221 30.0393Z" fill="#49B6A7"/>
<path d="M20.7234 46.2581C20.5682 46.6172 20.4378 46.9648 20.2684 47.2923C19.9984 47.8143 19.3748 47.9344 18.8701 47.5627C18.9355 47.4342 19.0028 47.3017 19.0773 47.1554C19.1655 47.1885 19.2409 47.2221 19.3194 47.2453C19.4669 47.2888 19.5977 47.2645 19.7095 47.1479C19.823 47.0297 19.7883 46.9148 19.7314 46.7849C19.4842 46.2209 19.243 45.6543 19.0002 45.0883C18.9635 45.0028 18.9301 44.9159 18.8839 44.8021C19.0983 44.8021 19.2906 44.8021 19.5234 44.8021C19.7092 45.2449 19.9059 45.7139 20.129 46.2457C20.3451 45.7349 20.5406 45.2728 20.742 44.7969C20.9288 44.7969 21.1145 44.7969 21.3442 44.7969C21.1352 45.2879 20.933 45.7628 20.7234 46.2581Z" fill="#D1F702"/>
<path d="M17.1798 45.2597C16.9539 45.303 16.7529 45.3466 16.511 45.399C16.4614 45.3044 16.3932 45.1742 16.3152 45.0253C16.3841 44.9814 16.4411 44.9333 16.5067 44.9051C16.8753 44.7463 17.2583 44.7039 17.6481 44.8038C18.043 44.905 18.2562 45.1423 18.2758 45.5488C18.2977 46.0026 18.2808 46.4583 18.2808 46.9355C18.0975 46.9355 17.914 46.9355 17.7229 46.9355C17.7089 46.8835 17.6947 46.8311 17.6793 46.7736C17.6517 46.7876 17.6245 46.7967 17.6029 46.8132C17.3184 47.0299 17.0031 47.0327 16.6822 46.9307C16.3903 46.8379 16.2163 46.5882 16.2249 46.3119C16.2339 46.0258 16.4115 45.8092 16.7251 45.7347C16.8804 45.6977 17.0438 45.6902 17.2042 45.6804C17.3452 45.6718 17.4872 45.6786 17.6292 45.6786C17.6203 45.3742 17.5502 45.3083 17.1798 45.2597ZM16.8463 46.2747C16.9111 46.5184 17.05 46.6045 17.2979 46.5549C17.5672 46.501 17.6662 46.3586 17.6232 46.0572C17.5161 46.0572 17.4051 46.0564 17.2941 46.0575C17.2284 46.0581 17.1626 46.0612 17.0969 46.0643C16.9828 46.0698 16.9023 46.1249 16.8463 46.2747Z" fill="#D1F702"/>
<path d="M37.157 44.956C37.3838 44.7895 37.6205 44.7437 37.8752 44.7584C38.3272 44.7845 38.6516 45.0759 38.6735 45.5293C38.6958 45.9928 38.6784 46.4582 38.6784 46.9584C38.5647 46.9584 38.4632 46.9584 38.3616 46.9584C38.2688 46.9584 38.1759 46.9584 38.0552 46.9584C38.0552 46.6848 38.0554 46.4405 38.0551 46.1961C38.0549 46.0442 38.0604 45.8919 38.0521 45.7403C38.037 45.4678 37.9041 45.3227 37.6611 45.2992C37.4154 45.2755 37.2025 45.4079 37.1369 45.6425C37.1067 45.7504 37.0971 45.8666 37.0952 45.9794C37.0898 46.2917 37.0933 46.6042 37.0933 46.9375C36.8865 46.9375 36.6938 46.9375 36.4819 46.9375C36.4819 46.2287 36.4819 45.5228 36.4819 44.7981C36.6626 44.7981 36.8392 44.7981 37.0222 44.7981C37.0574 44.8494 37.0984 44.909 37.157 44.956Z" fill="#D1F702"/>
<path d="M25.2051 46.4847C24.9096 45.9142 25.0053 45.3438 25.4381 45.0061C25.888 44.655 26.6246 44.6678 27.0469 45.0436C27.4048 45.362 27.4776 45.7737 27.3554 46.2122C27.2271 46.6729 26.8757 46.9106 26.4216 46.9743C25.9416 47.0416 25.5191 46.913 25.2051 46.4847ZM26.6773 46.2301C26.7762 46.0781 26.7809 45.9082 26.7596 45.738C26.7284 45.4892 26.5374 45.3056 26.294 45.277C26.031 45.2462 25.7993 45.3822 25.7068 45.6215C25.6001 45.8977 25.6937 46.2326 25.912 46.3869C26.0845 46.5089 26.4682 46.5246 26.6773 46.2301Z" fill="#D1F702"/>
<path d="M29.5901 46.7267C29.1763 46.3224 29.0746 45.7847 29.3152 45.3424C29.5654 44.8822 30.123 44.6554 30.6893 44.7834C31.276 44.9161 31.6023 45.3713 31.5606 45.999C31.5261 46.5192 31.0837 46.9372 30.5179 46.983C30.1855 47.0099 29.8771 46.9439 29.5901 46.7267ZM30.0813 46.3893C30.3003 46.5138 30.5173 46.507 30.7182 46.3579C30.9246 46.2046 30.9505 45.9792 30.9229 45.745C30.8896 45.4626 30.6657 45.2719 30.3799 45.2724C30.0976 45.2728 29.872 45.4685 29.8394 45.7487C29.812 45.9838 29.8452 46.202 30.0813 46.3893Z" fill="#D1F702"/>
<path d="M20.0661 14.6639C20.0576 14.7402 20.042 14.8408 19.9849 14.8785C19.3101 15.3243 18.6292 15.7607 17.9287 16.2031C17.6948 15.9184 17.479 15.6325 17.2715 15.3408C17.2177 15.2653 17.1792 15.1747 17.152 15.0855C17.0853 14.8669 17.1784 14.7158 17.405 14.6691C17.4781 14.654 17.5553 14.6542 17.6306 14.6543C18.4337 14.6551 19.2367 14.6572 20.0661 14.6639Z" fill="#A0E340"/>
<path d="M24.2906 45.3207C24.1333 45.3238 24.0022 45.3238 23.843 45.3238C23.843 45.6461 23.8343 45.9469 23.8464 46.2468C23.8532 46.4141 23.9404 46.4809 24.1085 46.4791C24.1917 46.4782 24.2746 46.4581 24.3703 46.445C24.4201 46.5772 24.4693 46.7079 24.5254 46.8572C24.1745 47.0368 23.8392 47.0473 23.5106 46.8617C23.2926 46.7386 23.2139 46.5243 23.2112 46.2827C23.2077 45.9791 23.2103 45.6755 23.2103 45.3511C23.104 45.3367 23.0043 45.3231 22.8896 45.3075C22.8896 45.1609 22.8896 45.0122 22.8896 44.8433C22.9899 44.833 23.0888 44.8229 23.2113 44.8103C23.2113 44.6407 23.2113 44.4831 23.2113 44.3164C23.4246 44.3164 23.6124 44.3164 23.8286 44.3164C23.8286 44.4814 23.8286 44.638 23.8286 44.8191C24.0133 44.8191 24.1707 44.8191 24.3441 44.8191C24.37 45.0028 24.4278 45.1622 24.2906 45.3207Z" fill="#D1F702"/>
<path d="M15.4133 46.4135C15.4133 46.6016 15.4133 46.7619 15.4133 46.9405C15.202 46.9405 15.0079 46.9405 14.7998 46.9405C14.7998 45.9515 14.7998 44.9718 14.7998 43.9785C15.0005 43.9785 15.1863 43.9785 15.4133 43.9785C15.4133 44.7827 15.4133 45.5842 15.4133 46.4135Z" fill="#D1F702"/>
<path d="M7.17529 46.5483C7.20979 46.376 7.29518 46.274 7.44472 46.2275C7.64518 46.1652 7.86499 46.2653 7.93319 46.4513C8.00896 46.6579 7.90703 46.8907 7.70801 46.9656C7.51471 47.0384 7.2933 46.9511 7.21061 46.7613C7.18509 46.7028 7.18383 46.6337 7.17529 46.5483Z" fill="#D1F702"/>
<path d="M10.3666 46.2129C10.7012 46.2473 10.8264 46.3655 10.8169 46.6138C10.8097 46.8 10.6973 46.9406 10.5237 46.9804C10.3533 47.0195 10.1708 46.9406 10.0887 46.7925C10.0017 46.6356 10.0344 46.4204 10.1724 46.3056C10.221 46.2651 10.2875 46.2461 10.3666 46.2129Z" fill="#D1F702"/>
<path d="M9.02548 46.9884C8.82522 46.9858 8.69626 46.9051 8.63322 46.7378C8.55679 46.535 8.64632 46.3247 8.83609 46.2424C9.02673 46.1597 9.25783 46.236 9.3481 46.4114C9.43926 46.5886 9.37822 46.8208 9.20504 46.9309C9.15928 46.96 9.10064 46.9689 9.02548 46.9884Z" fill="#D1F702"/>
<path d="M6.00815 11.708C5.95312 11.7511 5.89809 11.7942 5.84307 11.8372C5.83044 11.8274 5.81781 11.8175 5.80518 11.8077C5.84146 11.7579 5.87775 11.7081 5.93881 11.6641C5.97844 11.6826 5.99329 11.6953 6.00815 11.708Z" fill="#A0E340"/>
<path d="M6.01809 11.7038C5.99331 11.6942 5.97846 11.6814 5.9543 11.6573C5.945 11.6459 5.9583 11.6224 5.9697 11.6152C5.99142 11.6203 6.00174 11.6326 6.02622 11.6644C6.04039 11.684 6.02802 11.7007 6.01809 11.7038Z" fill="#D6FD00"/>
<path d="M25.3874 21.3909C25.3851 21.3919 25.3897 21.3899 25.3874 21.3909V21.3909Z" fill="#4EAA8D"/>
</g>
<defs>
<clipPath id="clip0_6746_19657">
<rect width="47" height="55" fill="white"/>
</clipPath>
</defs>
</svg>
